<mxfile host="Electron" modified="2024-06-12T09:19:44.578Z" agent="Mozilla/5.0 (Windows NT 10.0; Win64; x64) AppleWebKit/537.36 (KHTML, like Gecko) draw.io/24.5.1 Chrome/124.0.6367.207 Electron/30.0.6 Safari/537.36" etag="G3saDIWL5ivdaUiD0wtd" version="24.5.1" type="device">
  <diagram name="Initial Implementation Jun 2024" id="UpSf4owvoAI4YjrdSPTo">
    <mxGraphModel dx="2678" dy="2542" grid="0" gridSize="10" guides="1" tooltips="1" connect="1" arrows="1" fold="1" page="1" pageScale="1" pageWidth="1169" pageHeight="1654" math="0" shadow="0">
      <root>
        <mxCell id="eAyEYsCil0a5rR7mx6gQ-0" />
        <mxCell id="eAyEYsCil0a5rR7mx6gQ-1" parent="eAyEYsCil0a5rR7mx6gQ-0" />
        <mxCell id="eAyEYsCil0a5rR7mx6gQ-2" value="&lt;span style=&quot;font-weight: bold; font-size: 18px;&quot;&gt;RGO_Records&lt;/span&gt;&lt;font style=&quot;&quot;&gt;&lt;br&gt;&lt;font style=&quot;font-size: 12px;&quot;&gt;represents one record in an uploaded dataset&lt;/font&gt;&lt;/font&gt;&lt;div&gt;&lt;font style=&quot;&quot;&gt;&lt;font style=&quot;font-size: 12px;&quot;&gt;(only exists to group the RGO_Column records into Records)&lt;br&gt;&lt;/font&gt;&lt;/font&gt;&lt;/div&gt;" style="rounded=0;whiteSpace=wrap;html=1;align=center;fillColor=#dae8fc;strokeColor=#6c8ebf;" parent="eAyEYsCil0a5rR7mx6gQ-1" vertex="1">
          <mxGeometry x="-597.25" y="-604" width="222.5" height="123.5" as="geometry" />
        </mxCell>
        <mxCell id="eAyEYsCil0a5rR7mx6gQ-3" value="&lt;b style=&quot;border-color: var(--border-color);&quot;&gt;&lt;font style=&quot;font-size: 18px;&quot;&gt;RGO_Columns&lt;/font&gt;&lt;br&gt;&lt;/b&gt;&lt;font style=&quot;font-size: 12px;&quot;&gt;Represents one column in one record in an uploaded dataset&lt;/font&gt;&lt;br style=&quot;border-color: var(--border-color);&quot;&gt;&lt;br&gt;&lt;font style=&quot;font-size: 12px;&quot;&gt;Attributes include&amp;nbsp;Name, column_value, data_type,&amp;nbsp;PK_Column_Order,&amp;nbsp;Potentially_disclosive:&lt;br&gt;Column_value (decided for now just to store all values as char), Release_Status (inherited from RGO_Column_Template)&lt;/font&gt;" style="rounded=0;whiteSpace=wrap;html=1;fillColor=#dae8fc;strokeColor=#6c8ebf;" parent="eAyEYsCil0a5rR7mx6gQ-1" vertex="1">
          <mxGeometry x="-663" y="-336.5" width="354" height="221.5" as="geometry" />
        </mxCell>
        <mxCell id="eAyEYsCil0a5rR7mx6gQ-4" style="edgeStyle=none;rounded=0;orthogonalLoop=1;jettySize=auto;html=1;exitX=0.5;exitY=1;exitDx=0;exitDy=0;endArrow=ERmany;endFill=0;endSize=14;entryX=0.5;entryY=0;entryDx=0;entryDy=0;" parent="eAyEYsCil0a5rR7mx6gQ-1" source="eAyEYsCil0a5rR7mx6gQ-2" target="eAyEYsCil0a5rR7mx6gQ-3" edge="1">
          <mxGeometry relative="1" as="geometry">
            <mxPoint x="-1088" y="-46" as="sourcePoint" />
            <mxPoint x="-1398" y="-216" as="targetPoint" />
          </mxGeometry>
        </mxCell>
        <mxCell id="eAyEYsCil0a5rR7mx6gQ-5" value="&lt;font style=&quot;font-size: 18px;&quot;&gt;&lt;b&gt;RGO_Column_Templates&lt;br&gt;&lt;/b&gt;&lt;/font&gt;&lt;font style=&quot;font-size: 12px;&quot;&gt;The list of columns required for this RGO Dataset - at a minimum require columns to identify the entity being labelled, and the label itself&lt;/font&gt;&lt;div&gt;&lt;font style=&quot;font-size: 14px;&quot;&gt;&lt;br&gt;&lt;/font&gt;&lt;/div&gt;&lt;div&gt;&lt;font style=&quot;font-size: 12px;&quot;&gt;Attributes include Name, Description, Data type (Int, Char or Date), PK_Column_order (null or a number), potentially disclosive flag&lt;/font&gt;&lt;/div&gt;&lt;div&gt;&lt;blockquote style=&quot;margin: 0 0 0 40px; border: none; padding: 0px;&quot;&gt;&lt;div style=&quot;text-align: left;&quot;&gt;&lt;br&gt;&lt;/div&gt;&lt;/blockquote&gt;&lt;/div&gt;" style="rounded=0;whiteSpace=wrap;html=1;fillColor=#d5e8d4;strokeColor=#82b366;" parent="eAyEYsCil0a5rR7mx6gQ-1" vertex="1">
          <mxGeometry x="-1101.75" y="-326" width="260" height="203" as="geometry" />
        </mxCell>
        <mxCell id="eAyEYsCil0a5rR7mx6gQ-6" style="edgeStyle=none;rounded=0;orthogonalLoop=1;jettySize=auto;html=1;exitX=0.5;exitY=1;exitDx=0;exitDy=0;endArrow=ERmany;endFill=0;endSize=14;strokeColor=#00CC00;" parent="eAyEYsCil0a5rR7mx6gQ-1" source="eAyEYsCil0a5rR7mx6gQ-11" target="eAyEYsCil0a5rR7mx6gQ-5" edge="1">
          <mxGeometry relative="1" as="geometry">
            <mxPoint x="-820.5" y="-373" as="sourcePoint" />
            <mxPoint x="-823" y="-602" as="targetPoint" />
          </mxGeometry>
        </mxCell>
        <mxCell id="eAyEYsCil0a5rR7mx6gQ-7" style="edgeStyle=none;rounded=0;orthogonalLoop=1;jettySize=auto;html=1;exitX=1;exitY=0.5;exitDx=0;exitDy=0;endArrow=ERmany;endFill=0;endSize=14;entryX=0;entryY=0.5;entryDx=0;entryDy=0;strokeColor=#00CC00;" parent="eAyEYsCil0a5rR7mx6gQ-1" source="eAyEYsCil0a5rR7mx6gQ-5" target="eAyEYsCil0a5rR7mx6gQ-3" edge="1">
          <mxGeometry relative="1" as="geometry">
            <mxPoint x="-1002" y="-493" as="sourcePoint" />
            <mxPoint x="-1228" y="-470" as="targetPoint" />
          </mxGeometry>
        </mxCell>
        <mxCell id="eAyEYsCil0a5rR7mx6gQ-8" value="&lt;b style=&quot;&quot;&gt;&lt;font style=&quot;font-size: 18px;&quot;&gt;RGO_Datasets&lt;/font&gt;&lt;/b&gt;&lt;div style=&quot;&quot;&gt;&lt;font style=&quot;font-size: 12px;&quot;&gt;The header record for an uploaded dataset&lt;/font&gt;&lt;br&gt;&lt;br&gt;&lt;div style=&quot;&quot;&gt;&lt;div style=&quot;&quot;&gt;&lt;span style=&quot;background-color: initial;&quot;&gt;Includes Release_Status (initially inherited from RGO_Dataset_Template, and can be changed)&lt;/span&gt;&lt;br&gt;&lt;/div&gt;&lt;/div&gt;&lt;/div&gt;" style="rounded=0;whiteSpace=wrap;html=1;fillColor=#dae8fc;strokeColor=#6c8ebf;" parent="eAyEYsCil0a5rR7mx6gQ-1" vertex="1">
          <mxGeometry x="-592.5" y="-872.5" width="213" height="150" as="geometry" />
        </mxCell>
        <mxCell id="eAyEYsCil0a5rR7mx6gQ-9" style="edgeStyle=none;rounded=0;orthogonalLoop=1;jettySize=auto;html=1;exitX=1;exitY=0.5;exitDx=0;exitDy=0;endArrow=ERmany;endFill=0;endSize=14;entryX=0;entryY=0.5;entryDx=0;entryDy=0;strokeColor=#00CC00;" parent="eAyEYsCil0a5rR7mx6gQ-1" source="eAyEYsCil0a5rR7mx6gQ-11" target="eAyEYsCil0a5rR7mx6gQ-8" edge="1">
          <mxGeometry relative="1" as="geometry">
            <mxPoint x="-513" y="-854" as="sourcePoint" />
            <mxPoint x="-558" y="-789" as="targetPoint" />
          </mxGeometry>
        </mxCell>
        <mxCell id="eAyEYsCil0a5rR7mx6gQ-10" style="edgeStyle=none;rounded=0;orthogonalLoop=1;jettySize=auto;html=1;exitX=0.5;exitY=1;exitDx=0;exitDy=0;endArrow=ERmany;endFill=0;endSize=14;" parent="eAyEYsCil0a5rR7mx6gQ-1" source="eAyEYsCil0a5rR7mx6gQ-8" target="eAyEYsCil0a5rR7mx6gQ-2" edge="1">
          <mxGeometry relative="1" as="geometry">
            <mxPoint x="-1002" y="-493" as="sourcePoint" />
            <mxPoint x="-1228" y="-470" as="targetPoint" />
          </mxGeometry>
        </mxCell>
        <mxCell id="eAyEYsCil0a5rR7mx6gQ-11" value="&lt;b&gt;&lt;font style=&quot;font-size: 18px;&quot;&gt;RGO_Dataset_Templates&lt;/font&gt;&lt;/b&gt;&lt;br style=&quot;border-color: var(--border-color);&quot;&gt;&lt;font style=&quot;&quot;&gt;&lt;br&gt;&lt;font style=&quot;font-size: 12px;&quot;&gt;Detailed infromation about Ground Truth RGOs.&lt;/font&gt;&lt;/font&gt;&lt;div&gt;&lt;font style=&quot;font-size: 14px;&quot;&gt;&lt;br&gt;&lt;/font&gt;&lt;/div&gt;&lt;div&gt;&lt;font style=&quot;&quot;&gt;&lt;font style=&quot;font-size: 12px;&quot;&gt;Attributes include name and description&lt;/font&gt;&lt;br&gt;&lt;/font&gt;&lt;div&gt;&lt;font style=&quot;font-size: 14px;&quot;&gt;&lt;br&gt;&lt;/font&gt;&lt;/div&gt;&lt;/div&gt;" style="rounded=0;whiteSpace=wrap;html=1;fillColor=#d5e8d4;strokeColor=#82b366;" parent="eAyEYsCil0a5rR7mx6gQ-1" vertex="1">
          <mxGeometry x="-1091.75" y="-875.25" width="240" height="155.5" as="geometry" />
        </mxCell>
        <mxCell id="eAyEYsCil0a5rR7mx6gQ-12" value="&lt;font style=&quot;&quot;&gt;&lt;span style=&quot;font-weight: bold; font-size: 18px;&quot;&gt;RGO_Types&lt;/span&gt;&lt;font style=&quot;&quot;&gt;&lt;br&gt;&lt;span style=&quot;line-height: 150%; font-family: Arial, sans-serif;&quot;&gt;&lt;font style=&quot;font-size: 12px;&quot;&gt;a way to categorise Research Generated Outputs&lt;/font&gt;&lt;/span&gt;&lt;br&gt;&lt;/font&gt;&lt;font style=&quot;font-size: 12px;&quot; face=&quot;Helvetica&quot;&gt;e.g. Ground Truth&lt;/font&gt;&lt;/font&gt;" style="rounded=0;whiteSpace=wrap;html=1;fillColor=#d5e8d4;strokeColor=#82b366;" parent="eAyEYsCil0a5rR7mx6gQ-1" vertex="1">
          <mxGeometry x="-1111" y="-1272" width="276" height="87" as="geometry" />
        </mxCell>
        <mxCell id="eAyEYsCil0a5rR7mx6gQ-13" value="&lt;b style=&quot;&quot;&gt;&lt;font style=&quot;font-size: 18px;&quot;&gt;Groups&amp;nbsp;&lt;/font&gt;&lt;/b&gt;&lt;div&gt;&lt;span style=&quot;line-height: 150%;&quot;&gt;&lt;font face=&quot;Helvetica&quot; style=&quot;font-size: 12px;&quot;&gt;the creators of Researcher Generated Outputs&lt;/font&gt;&lt;/span&gt;&lt;b style=&quot;&quot;&gt;&lt;font style=&quot;font-size: 18px;&quot;&gt;&lt;br&gt;&lt;/font&gt;&lt;/b&gt;&lt;div&gt;&lt;font style=&quot;font-size: 13px;&quot;&gt;E.g a particular research project, or the Data Team itself.&amp;nbsp;&amp;nbsp;&lt;/font&gt;&lt;/div&gt;&lt;div&gt;&lt;br&gt;&lt;/div&gt;&lt;div&gt;Attributes include name, description, reference_number and contact details (for internal use only)&lt;/div&gt;&lt;/div&gt;" style="rounded=0;whiteSpace=wrap;html=1;fillColor=#d5e8d4;strokeColor=#82b366;" parent="eAyEYsCil0a5rR7mx6gQ-1" vertex="1">
          <mxGeometry x="-667.5" y="-1104.61" width="255" height="134.36" as="geometry" />
        </mxCell>
        <mxCell id="eAyEYsCil0a5rR7mx6gQ-14" value="&lt;font style=&quot;&quot;&gt;&lt;font style=&quot;&quot;&gt;&lt;font style=&quot;font-size: 18px;&quot;&gt;&lt;b&gt;RGOutputs&lt;/b&gt;&lt;/font&gt;&lt;br&gt;&lt;font style=&quot;font-size: 12px;&quot;&gt;A Researcher Generated Output (of any type)&lt;/font&gt;&lt;/font&gt;&lt;/font&gt;&lt;div&gt;&lt;div&gt;&lt;font style=&quot;&quot;&gt;&lt;br&gt;&lt;/font&gt;&lt;/div&gt;&lt;/div&gt;&lt;div&gt;&lt;font style=&quot;&quot;&gt;Includes attributes for name, description, DOI, Standard Acknowlegement Text&lt;/font&gt;&lt;/div&gt;" style="rounded=0;whiteSpace=wrap;html=1;fillColor=#d5e8d4;strokeColor=#82b366;" parent="eAyEYsCil0a5rR7mx6gQ-1" vertex="1">
          <mxGeometry x="-1096" y="-1125" width="248.5" height="171.75" as="geometry" />
        </mxCell>
        <mxCell id="eAyEYsCil0a5rR7mx6gQ-15" style="edgeStyle=none;rounded=0;orthogonalLoop=1;jettySize=auto;html=1;endArrow=ERmany;endFill=0;endSize=14;entryX=1;entryY=0.5;entryDx=0;entryDy=0;exitX=0;exitY=0.5;exitDx=0;exitDy=0;strokeColor=#00CC00;" parent="eAyEYsCil0a5rR7mx6gQ-1" source="eAyEYsCil0a5rR7mx6gQ-13" target="eAyEYsCil0a5rR7mx6gQ-14" edge="1">
          <mxGeometry relative="1" as="geometry">
            <mxPoint x="-548.5" y="-1022.1200000000001" as="sourcePoint" />
            <mxPoint x="375.5" y="-578.75" as="targetPoint" />
          </mxGeometry>
        </mxCell>
        <mxCell id="eAyEYsCil0a5rR7mx6gQ-16" style="edgeStyle=none;rounded=0;orthogonalLoop=1;jettySize=auto;html=1;exitX=0.5;exitY=1;exitDx=0;exitDy=0;endArrow=none;endFill=0;endSize=14;entryX=0.5;entryY=0;entryDx=0;entryDy=0;strokeColor=#00CC00;" parent="eAyEYsCil0a5rR7mx6gQ-1" source="eAyEYsCil0a5rR7mx6gQ-14" target="eAyEYsCil0a5rR7mx6gQ-11" edge="1">
          <mxGeometry relative="1" as="geometry">
            <mxPoint x="131.5" y="-1328" as="sourcePoint" />
            <mxPoint x="122.5" y="-1102" as="targetPoint" />
          </mxGeometry>
        </mxCell>
        <mxCell id="eAyEYsCil0a5rR7mx6gQ-17" value="Could this be 1:M?&amp;nbsp; Leave it flexible for now" style="edgeLabel;html=1;align=center;verticalAlign=middle;resizable=0;points=[];" parent="eAyEYsCil0a5rR7mx6gQ-16" vertex="1" connectable="0">
          <mxGeometry x="-0.0381" relative="1" as="geometry">
            <mxPoint as="offset" />
          </mxGeometry>
        </mxCell>
        <mxCell id="eAyEYsCil0a5rR7mx6gQ-18" style="edgeStyle=none;rounded=0;orthogonalLoop=1;jettySize=auto;html=1;endArrow=ERmany;endFill=0;endSize=14;entryX=0.5;entryY=0;entryDx=0;entryDy=0;exitX=0.5;exitY=1;exitDx=0;exitDy=0;strokeColor=#00CC00;" parent="eAyEYsCil0a5rR7mx6gQ-1" source="eAyEYsCil0a5rR7mx6gQ-12" target="eAyEYsCil0a5rR7mx6gQ-14" edge="1">
          <mxGeometry relative="1" as="geometry">
            <mxPoint x="410.5" y="-1113" as="sourcePoint" />
            <mxPoint x="-70.5" y="-1097" as="targetPoint" />
          </mxGeometry>
        </mxCell>
        <mxCell id="eAyEYsCil0a5rR7mx6gQ-20" value="&lt;b style=&quot;&quot;&gt;&lt;font style=&quot;font-size: 18px;&quot;&gt;Group_Types&amp;nbsp;&lt;/font&gt;&lt;/b&gt;&lt;div&gt;&lt;span style=&quot;line-height: 150%; font-family: Arial, sans-serif;&quot;&gt;&lt;font style=&quot;font-size: 12px;&quot;&gt;a way to categorise Groups&lt;/font&gt;&lt;/span&gt;&lt;b style=&quot;&quot;&gt;&lt;font style=&quot;font-size: 18px;&quot;&gt;&lt;br&gt;&lt;/font&gt;&lt;/b&gt;&lt;br&gt;&lt;font style=&quot;&quot;&gt;&lt;font style=&quot;font-size: 12px;&quot;&gt;e.g. Research Project&lt;/font&gt;&lt;br&gt;&lt;br&gt;&lt;/font&gt;&lt;/div&gt;" style="rounded=0;whiteSpace=wrap;html=1;fillColor=#d5e8d4;strokeColor=#82b366;" parent="eAyEYsCil0a5rR7mx6gQ-1" vertex="1">
          <mxGeometry x="-306" y="-1084.92" width="186" height="94.98" as="geometry" />
        </mxCell>
        <mxCell id="eAyEYsCil0a5rR7mx6gQ-21" style="edgeStyle=none;rounded=0;orthogonalLoop=1;jettySize=auto;html=1;endArrow=ERmany;endFill=0;endSize=14;entryX=1;entryY=0.5;entryDx=0;entryDy=0;exitX=0;exitY=0.5;exitDx=0;exitDy=0;strokeColor=#00CC00;" parent="eAyEYsCil0a5rR7mx6gQ-1" source="eAyEYsCil0a5rR7mx6gQ-20" target="eAyEYsCil0a5rR7mx6gQ-13" edge="1">
          <mxGeometry relative="1" as="geometry">
            <mxPoint x="-187" y="-1002" as="sourcePoint" />
            <mxPoint x="-268" y="-1002" as="targetPoint" />
          </mxGeometry>
        </mxCell>
        <mxCell id="eAyEYsCil0a5rR7mx6gQ-22" value="&lt;b&gt;&lt;font style=&quot;font-size: 18px;&quot;&gt;People&lt;/font&gt;&lt;br&gt;&lt;/b&gt;&lt;font style=&quot;font-size: 12px;&quot;&gt;the names of Ground Truthers&lt;/font&gt;&lt;div&gt;&lt;font style=&quot;font-size: 14px;&quot;&gt;&lt;br&gt;&lt;/font&gt;&lt;/div&gt;&lt;div&gt;&lt;font style=&quot;font-size: 12px;&quot;&gt;Attributes include Name, ContactInfo (for internal use only), ORCID&lt;/font&gt;&lt;/div&gt;" style="rounded=0;whiteSpace=wrap;html=1;fillColor=#d5e8d4;strokeColor=#82b366;" parent="eAyEYsCil0a5rR7mx6gQ-1" vertex="1">
          <mxGeometry x="-296.75" y="-875" width="151" height="168.5" as="geometry" />
        </mxCell>
        <mxCell id="eAyEYsCil0a5rR7mx6gQ-26" value="&lt;font style=&quot;font-weight: bold; font-size: 18px;&quot;&gt;RGO_Record_&lt;/font&gt;&lt;div&gt;&lt;font style=&quot;font-weight: bold; font-size: 18px;&quot;&gt;People&lt;br&gt;&lt;/font&gt;&lt;font style=&quot;font-size: 12px;&quot;&gt;associates an RGO record with a ground truther&lt;/font&gt;&lt;/div&gt;" style="rounded=0;whiteSpace=wrap;html=1;align=center;fillColor=#dae8fc;strokeColor=#6c8ebf;" parent="eAyEYsCil0a5rR7mx6gQ-1" vertex="1">
          <mxGeometry x="-303" y="-598.75" width="163.5" height="113" as="geometry" />
        </mxCell>
        <mxCell id="eAyEYsCil0a5rR7mx6gQ-27" style="edgeStyle=none;rounded=0;orthogonalLoop=1;jettySize=auto;html=1;exitX=1;exitY=0.5;exitDx=0;exitDy=0;endArrow=ERmany;endFill=0;endSize=14;entryX=0;entryY=0.5;entryDx=0;entryDy=0;" parent="eAyEYsCil0a5rR7mx6gQ-1" source="eAyEYsCil0a5rR7mx6gQ-2" target="eAyEYsCil0a5rR7mx6gQ-26" edge="1">
          <mxGeometry relative="1" as="geometry">
            <mxPoint x="-1403" y="-696" as="sourcePoint" />
            <mxPoint x="-1403" y="-628" as="targetPoint" />
          </mxGeometry>
        </mxCell>
        <mxCell id="eAyEYsCil0a5rR7mx6gQ-29" value="&lt;font style=&quot;&quot;&gt;&lt;span style=&quot;font-weight: bold; font-size: 18px;&quot;&gt;RGO_Evidence&lt;/span&gt;&lt;br&gt;&lt;font style=&quot;&quot;&gt;&lt;font style=&quot;font-size: 12px;&quot;&gt;This associates an RGOuptut with a piece of Evidence&lt;/font&gt;&lt;/font&gt;&lt;/font&gt;&lt;div&gt;&lt;font style=&quot;&quot;&gt;&lt;font style=&quot;&quot;&gt;Standard Acknowledgement Text&lt;br&gt;&lt;/font&gt;&lt;br&gt;&lt;/font&gt;&lt;/div&gt;" style="rounded=0;whiteSpace=wrap;html=1;fillColor=#d5e8d4;strokeColor=#82b366;" parent="eAyEYsCil0a5rR7mx6gQ-1" vertex="1">
          <mxGeometry x="-607" y="-1297" width="160" height="119" as="geometry" />
        </mxCell>
        <mxCell id="eAyEYsCil0a5rR7mx6gQ-30" value="&lt;font style=&quot;font-size: 20px;&quot;&gt;&lt;font style=&quot;font-weight: bold; font-size: 20px;&quot;&gt;Evidence&lt;/font&gt;&lt;b&gt;&amp;nbsp;&lt;/b&gt;&lt;/font&gt;&lt;i&gt;&lt;br&gt;&lt;/i&gt;&lt;font face=&quot;Helvetica&quot; style=&quot;font-size: 12px;&quot;&gt;E.g. An actual journal article&lt;/font&gt;&lt;div&gt;&lt;font style=&quot;font-size: 12px;&quot;&gt;&lt;br&gt;&lt;font face=&quot;Helvetica&quot;&gt;&lt;font style=&quot;&quot;&gt;Attributes include&amp;nbsp;Name,&amp;nbsp;&lt;/font&gt;&lt;span style=&quot;background-color: initial;&quot;&gt;Description,&amp;nbsp;&lt;/span&gt;&lt;span style=&quot;background-color: initial;&quot;&gt;DOI&lt;/span&gt;&lt;/font&gt;&lt;/font&gt;&lt;/div&gt;" style="rounded=0;whiteSpace=wrap;html=1;fillColor=#d5e8d4;strokeColor=#82b366;" parent="eAyEYsCil0a5rR7mx6gQ-1" vertex="1">
          <mxGeometry x="-333" y="-1317.5" width="190" height="160" as="geometry" />
        </mxCell>
        <mxCell id="eAyEYsCil0a5rR7mx6gQ-31" style="edgeStyle=orthogonalEdgeStyle;rounded=0;orthogonalLoop=1;jettySize=auto;html=1;endArrow=ERmany;endFill=0;endSize=14;entryX=0;entryY=0.5;entryDx=0;entryDy=0;exitX=1;exitY=0.25;exitDx=0;exitDy=0;strokeColor=#00CC00;" parent="eAyEYsCil0a5rR7mx6gQ-1" source="eAyEYsCil0a5rR7mx6gQ-14" target="eAyEYsCil0a5rR7mx6gQ-29" edge="1">
          <mxGeometry relative="1" as="geometry">
            <mxPoint x="-388" y="-1183" as="sourcePoint" />
            <mxPoint x="-445" y="-852" as="targetPoint" />
          </mxGeometry>
        </mxCell>
        <mxCell id="eAyEYsCil0a5rR7mx6gQ-32" style="edgeStyle=none;rounded=0;orthogonalLoop=1;jettySize=auto;html=1;endArrow=ERmany;endFill=0;endSize=14;entryX=1;entryY=0.5;entryDx=0;entryDy=0;strokeColor=#00CC00;" parent="eAyEYsCil0a5rR7mx6gQ-1" source="eAyEYsCil0a5rR7mx6gQ-30" target="eAyEYsCil0a5rR7mx6gQ-29" edge="1">
          <mxGeometry relative="1" as="geometry">
            <mxPoint x="-665" y="-789" as="sourcePoint" />
            <mxPoint x="-505" y="-842" as="targetPoint" />
          </mxGeometry>
        </mxCell>
        <mxCell id="eAyEYsCil0a5rR7mx6gQ-33" value="&lt;font style=&quot;font-size: 18px;&quot;&gt;&lt;b&gt;Evidence_Type&lt;/b&gt;&lt;/font&gt;&lt;div&gt;&lt;font face=&quot;Helvetica&quot; style=&quot;font-size: 12px;&quot;&gt;&lt;span style=&quot;line-height: 150%;&quot;&gt;&lt;font style=&quot;&quot;&gt;a way to categorise Evidence&lt;/font&gt;&lt;/span&gt;&lt;b style=&quot;&quot;&gt;&lt;br&gt;&lt;/b&gt;&lt;/font&gt;&lt;div&gt;&lt;font face=&quot;Helvetica&quot; style=&quot;font-size: 12px;&quot;&gt;e.g. Journal Article, request for extraction&lt;/font&gt;&lt;/div&gt;&lt;div&gt;&lt;br&gt;&lt;/div&gt;&lt;/div&gt;" style="rounded=0;whiteSpace=wrap;html=1;fillColor=#d5e8d4;strokeColor=#82b366;" parent="eAyEYsCil0a5rR7mx6gQ-1" vertex="1">
          <mxGeometry x="-318" y="-1457" width="160" height="110.48" as="geometry" />
        </mxCell>
        <mxCell id="eAyEYsCil0a5rR7mx6gQ-34" style="edgeStyle=none;rounded=0;orthogonalLoop=1;jettySize=auto;html=1;endArrow=ERmany;endFill=0;endSize=14;entryX=0.5;entryY=0;entryDx=0;entryDy=0;exitX=0.5;exitY=1;exitDx=0;exitDy=0;shadow=1;strokeColor=#00CC00;" parent="eAyEYsCil0a5rR7mx6gQ-1" source="eAyEYsCil0a5rR7mx6gQ-33" target="eAyEYsCil0a5rR7mx6gQ-30" edge="1">
          <mxGeometry relative="1" as="geometry">
            <mxPoint x="116" y="-1280" as="sourcePoint" />
            <mxPoint x="20" y="-1271" as="targetPoint" />
          </mxGeometry>
        </mxCell>
        <mxCell id="dYgaiGfvyxrr6qxFnoAr-1" value="RGO Database Schema&amp;nbsp;&lt;div&gt;&lt;font style=&quot;font-size: 18px;&quot;&gt;&lt;i style=&quot;font-weight: normal;&quot;&gt;(Initial Implementation for eDRIS)&lt;/i&gt;&lt;/font&gt;&lt;/div&gt;" style="rounded=0;whiteSpace=wrap;html=1;fontStyle=1;fontSize=24;" parent="eAyEYsCil0a5rR7mx6gQ-1" vertex="1">
          <mxGeometry x="-701" y="-1642" width="333" height="60" as="geometry" />
        </mxCell>
        <mxCell id="dYgaiGfvyxrr6qxFnoAr-2" value="&lt;font style=&quot;font-size: 14px;&quot;&gt;&lt;b style=&quot;font-size: 14px;&quot;&gt;Setup/Config Table maintained by the Data Team&lt;/b&gt;&lt;/font&gt;" style="rounded=0;whiteSpace=wrap;html=1;fillColor=#d5e8d4;strokeColor=#82b366;fontSize=14;" parent="eAyEYsCil0a5rR7mx6gQ-1" vertex="1">
          <mxGeometry x="-1149.5" y="-1553" width="206" height="68" as="geometry" />
        </mxCell>
        <mxCell id="dYgaiGfvyxrr6qxFnoAr-3" value="&lt;span style=&quot;font-size: 14px;&quot;&gt;&lt;b style=&quot;font-size: 14px;&quot;&gt;Populated by RGO upload&lt;/b&gt;&lt;/span&gt;" style="rounded=0;whiteSpace=wrap;html=1;fillColor=#dae8fc;strokeColor=#6c8ebf;fontSize=14;" parent="eAyEYsCil0a5rR7mx6gQ-1" vertex="1">
          <mxGeometry x="-1149.5" y="-1478" width="206" height="45" as="geometry" />
        </mxCell>
        <mxCell id="dYgaiGfvyxrr6qxFnoAr-4" value="&lt;font style=&quot;font-size: 16px;&quot;&gt;Key&lt;/font&gt;" style="rounded=0;whiteSpace=wrap;html=1;fontStyle=1;fontSize=24;strokeColor=none;" parent="eAyEYsCil0a5rR7mx6gQ-1" vertex="1">
          <mxGeometry x="-1079.5" y="-1601" width="66" height="34" as="geometry" />
        </mxCell>
        <mxCell id="dYgaiGfvyxrr6qxFnoAr-7" style="edgeStyle=orthogonalEdgeStyle;rounded=0;orthogonalLoop=1;jettySize=auto;html=1;endArrow=ERmany;endFill=0;endSize=14;entryX=0.5;entryY=1;entryDx=0;entryDy=0;strokeColor=#00CC00;exitX=0.472;exitY=1;exitDx=0;exitDy=0;exitPerimeter=0;" parent="eAyEYsCil0a5rR7mx6gQ-1" source="eAyEYsCil0a5rR7mx6gQ-5" target="eAyEYsCil0a5rR7mx6gQ-26" edge="1">
          <mxGeometry relative="1" as="geometry">
            <mxPoint x="-998" y="-104" as="sourcePoint" />
            <mxPoint x="-465" y="-429" as="targetPoint" />
            <Array as="points">
              <mxPoint x="-980" y="-86" />
              <mxPoint x="-296" y="-86" />
            </Array>
          </mxGeometry>
        </mxCell>
        <mxCell id="dYgaiGfvyxrr6qxFnoAr-8" value="&lt;font style=&quot;font-size: 14px;&quot;&gt;&lt;b style=&quot;font-size: 14px;&quot;&gt;All tables also have the common columns:&lt;/b&gt;&lt;/font&gt;&lt;div&gt;&lt;font style=&quot;font-size: 14px;&quot;&gt;&lt;span style=&quot;font-size: 14px;&quot;&gt;Id &lt;i&gt;(which is the PK)&lt;/i&gt;&lt;/span&gt;&lt;/font&gt;&lt;/div&gt;&lt;div&gt;&lt;font style=&quot;font-size: 14px;&quot;&gt;&lt;span style=&quot;font-size: 14px;&quot;&gt;Created_by&lt;/span&gt;&lt;/font&gt;&lt;/div&gt;&lt;div&gt;&lt;font style=&quot;font-size: 14px;&quot;&gt;&lt;span style=&quot;font-size: 14px;&quot;&gt;Created_date&lt;/span&gt;&lt;/font&gt;&lt;/div&gt;&lt;div&gt;&lt;font style=&quot;font-size: 14px;&quot;&gt;&lt;span style=&quot;font-size: 14px;&quot;&gt;Updated_by&lt;/span&gt;&lt;/font&gt;&lt;/div&gt;&lt;div&gt;&lt;font style=&quot;font-size: 14px;&quot;&gt;&lt;span style=&quot;font-size: 14px;&quot;&gt;Updated_date&lt;/span&gt;&lt;/font&gt;&lt;/div&gt;&lt;div&gt;&lt;font style=&quot;font-size: 14px;&quot;&gt;&lt;span style=&quot;font-size: 14px;&quot;&gt;Notes&lt;/span&gt;&lt;/font&gt;&lt;/div&gt;" style="rounded=0;whiteSpace=wrap;html=1;fontSize=14;" parent="eAyEYsCil0a5rR7mx6gQ-1" vertex="1">
          <mxGeometry x="-927" y="-1556" width="206" height="144" as="geometry" />
        </mxCell>
        <mxCell id="5wy5zbf3qwUygz4juwiF-0" value="&lt;span style=&quot;font-size: 18px;&quot;&gt;&lt;b&gt;RGO_Release_Statuses&lt;/b&gt;&lt;/span&gt;&lt;div&gt;&lt;font style=&quot;&quot;&gt;&lt;span style=&quot;line-height: 150%; font-family: Arial, sans-serif;&quot;&gt;&lt;font style=&quot;font-size: 12px;&quot;&gt;a way to categorise Actual RGO Datasets and the&lt;br&gt;columns within them&lt;/font&gt;&lt;/span&gt;&lt;br&gt;&lt;/font&gt;&lt;/div&gt;&lt;div&gt;&lt;font style=&quot;font-size: 12px;&quot;&gt;status, description, available_for_release&lt;/font&gt;&lt;/div&gt;" style="rounded=0;whiteSpace=wrap;html=1;fillColor=#d5e8d4;strokeColor=#82b366;" parent="eAyEYsCil0a5rR7mx6gQ-1" vertex="1">
          <mxGeometry x="-899" y="-603" width="253" height="124" as="geometry" />
        </mxCell>
        <mxCell id="5wy5zbf3qwUygz4juwiF-1" style="edgeStyle=none;rounded=0;orthogonalLoop=1;jettySize=auto;html=1;exitX=0.5;exitY=0;exitDx=0;exitDy=0;endArrow=ERmany;endFill=0;endSize=14;entryX=0.25;entryY=1;entryDx=0;entryDy=0;strokeColor=#00CC00;" parent="eAyEYsCil0a5rR7mx6gQ-1" source="5wy5zbf3qwUygz4juwiF-0" target="eAyEYsCil0a5rR7mx6gQ-8" edge="1">
          <mxGeometry relative="1" as="geometry">
            <mxPoint x="-842" y="-788" as="sourcePoint" />
            <mxPoint x="-657" y="-787" as="targetPoint" />
          </mxGeometry>
        </mxCell>
        <mxCell id="5wy5zbf3qwUygz4juwiF-2" style="edgeStyle=none;rounded=0;orthogonalLoop=1;jettySize=auto;html=1;exitX=0.25;exitY=0;exitDx=0;exitDy=0;endArrow=ERmany;endFill=0;endSize=14;entryX=0.75;entryY=1;entryDx=0;entryDy=0;strokeColor=#00CC00;" parent="eAyEYsCil0a5rR7mx6gQ-1" source="5wy5zbf3qwUygz4juwiF-0" target="eAyEYsCil0a5rR7mx6gQ-11" edge="1">
          <mxGeometry relative="1" as="geometry">
            <mxPoint x="-785" y="-667" as="sourcePoint" />
            <mxPoint x="-604" y="-712" as="targetPoint" />
          </mxGeometry>
        </mxCell>
        <mxCell id="5wy5zbf3qwUygz4juwiF-3" style="edgeStyle=none;rounded=0;orthogonalLoop=1;jettySize=auto;html=1;exitX=0.25;exitY=1;exitDx=0;exitDy=0;endArrow=ERmany;endFill=0;endSize=14;entryX=0.694;entryY=-0.002;entryDx=0;entryDy=0;entryPerimeter=0;strokeColor=#00CC00;" parent="eAyEYsCil0a5rR7mx6gQ-1" source="5wy5zbf3qwUygz4juwiF-0" target="eAyEYsCil0a5rR7mx6gQ-5" edge="1">
          <mxGeometry relative="1" as="geometry">
            <mxPoint x="-834" y="-667" as="sourcePoint" />
            <mxPoint x="-902" y="-710" as="targetPoint" />
          </mxGeometry>
        </mxCell>
        <mxCell id="5wy5zbf3qwUygz4juwiF-7" style="edgeStyle=none;rounded=0;orthogonalLoop=1;jettySize=auto;html=1;endArrow=ERmany;endFill=0;endSize=14;entryX=0.5;entryY=0;entryDx=0;entryDy=0;exitX=0.5;exitY=1;exitDx=0;exitDy=0;strokeColor=#00CC00;" parent="eAyEYsCil0a5rR7mx6gQ-1" edge="1">
          <mxGeometry relative="1" as="geometry">
            <mxPoint x="-1129" y="-1412" as="sourcePoint" />
            <mxPoint x="-1129" y="-1359" as="targetPoint" />
          </mxGeometry>
        </mxCell>
        <mxCell id="5wy5zbf3qwUygz4juwiF-10" value="&lt;font style=&quot;font-size: 14px;&quot;&gt;Cascade delete prevented&lt;/font&gt;" style="rounded=0;whiteSpace=wrap;html=1;fillColor=none;strokeColor=none;" parent="eAyEYsCil0a5rR7mx6gQ-1" vertex="1">
          <mxGeometry x="-1123" y="-1412" width="199" height="60" as="geometry" />
        </mxCell>
        <mxCell id="5wy5zbf3qwUygz4juwiF-11" style="edgeStyle=none;rounded=0;orthogonalLoop=1;jettySize=auto;html=1;endArrow=ERmany;endFill=0;endSize=14;entryX=0.5;entryY=0;entryDx=0;entryDy=0;exitX=0.5;exitY=1;exitDx=0;exitDy=0;strokeColor=#000000;" parent="eAyEYsCil0a5rR7mx6gQ-1" edge="1">
          <mxGeometry relative="1" as="geometry">
            <mxPoint x="-1131" y="-1349" as="sourcePoint" />
            <mxPoint x="-1131" y="-1296" as="targetPoint" />
          </mxGeometry>
        </mxCell>
        <mxCell id="5wy5zbf3qwUygz4juwiF-12" value="&lt;font style=&quot;font-size: 14px;&quot;&gt;Cascade delete allowed&lt;/font&gt;" style="rounded=0;whiteSpace=wrap;html=1;fillColor=none;strokeColor=none;" parent="eAyEYsCil0a5rR7mx6gQ-1" vertex="1">
          <mxGeometry x="-1117" y="-1352.5" width="188" height="60" as="geometry" />
        </mxCell>
        <mxCell id="TFsAQ_x3pMN2AGYq_7zm-0" style="rounded=0;orthogonalLoop=1;jettySize=auto;html=1;exitX=0.5;exitY=1;exitDx=0;exitDy=0;endArrow=ERmany;endFill=0;endSize=14;entryX=0.5;entryY=0;entryDx=0;entryDy=0;strokeColor=#00CC00;" edge="1" parent="eAyEYsCil0a5rR7mx6gQ-1" source="eAyEYsCil0a5rR7mx6gQ-22" target="eAyEYsCil0a5rR7mx6gQ-26">
          <mxGeometry relative="1" as="geometry">
            <mxPoint x="-970" y="-109" as="sourcePoint" />
            <mxPoint x="-286" y="-476" as="targetPoint" />
          </mxGeometry>
        </mxCell>
      </root>
    </mxGraphModel>
  </diagram>
</mxfile>
